<svg width="256" height="256" viewBox="0 0 256 256" fill="none" xmlns="http://www.w3.org/2000/svg">
<path d="M128 212.627C127.793 212.759 127.557 212.886 127.304 213.006C125.408 213.906 123.229 212.964 122.069 211.215L111.176 194.789C109.5 192.262 110.453 188.838 113.193 187.54C115.601 186.399 118.481 187.358 119.725 189.715L129.049 207.377C129.937 209.061 129.876 211.218 128.362 212.372C128.243 212.464 128.122 212.549 128 212.627Z" fill="black"/>
<path d="M104.317 157.204C105.535 159.602 104.639 162.534 102.288 163.84L101.599 164.223C99.2941 165.503 96.3905 164.773 94.9648 162.555L40.893 78.4073C38.8184 75.1787 38.7033 70.9775 41.2112 68.0727C42.3771 66.7222 43.7003 65.4193 45 64.627C46.32 63.8223 48.0495 63.275 49.745 62.9034C53.5111 62.0779 57.1124 64.316 58.8591 67.7532L104.317 157.204Z" fill="black"/>
<path d="M56.5 140.5C19.761 165.6 12.2441 181.5 18.0416 192.187C25.8297 206.544 81.2591 191.54 141.847 158.674C202.434 125.808 245.237 87.526 237.449 73.1689C232.431 63.9195 216.204 64.4519 183 76.5" stroke="black" stroke-width="20" stroke-linecap="round"/>
<path d="M94.1192 130.808L62.056 66.2594C61.1216 64.3784 61.4766 62.0863 62.9594 60.5989C97.4867 25.9655 121.979 37.6517 142.689 44.8515C145.127 45.6988 147.188 47.3927 148.421 49.6594L172.651 94.2119C174.633 97.8552 171.542 102.293 167.397 102.155C137.919 101.171 115.351 116.804 103.879 131.404C101.351 134.621 95.9395 134.472 94.1192 130.808Z" fill="black"/>
</svg>
