<svg width="979" height="256" viewBox="0 0 979 256" fill="none" xmlns="http://www.w3.org/2000/svg">
<path d="M145.684 210.005C143.876 211.157 140.351 211.996 140.351 211.996L123.518 185.996L135.018 179.996L149.018 206.686C149.018 206.686 147.397 208.913 145.684 210.005Z" fill="black"/>
<path d="M124.018 157.496L110.018 163.996L52.0178 75.3805C52.0178 75.3805 56.7184 67.7501 61.1904 65.0378C65.8402 62.2176 74.6437 61.9958 74.6437 61.9958L124.018 157.496Z" fill="black"/>
<path d="M81.0178 128.996C44.2788 154.096 24.2618 179.495 30.0594 190.183C37.8475 204.54 93.2769 189.536 153.864 156.67C214.452 123.804 257.254 85.5218 249.466 71.1647C244.449 61.9154 213.018 60.4959 181.518 75.4959" stroke="black" stroke-width="20"/>
<path d="M193.018 106.123C152.618 99.7228 128.184 124.235 119.018 141.902L100.018 103.652L81.0178 65.402C119.018 25.402 141.518 42.4958 163.518 49.4958L193.018 106.123Z" fill="black"/>
<path d="M336.672 178.016C328.368 178.016 321.024 176.192 314.64 172.544C308.304 168.896 303.336 163.448 299.736 156.2C296.136 148.952 294.336 139.952 294.336 129.2C294.336 118.256 296.136 109.208 299.736 102.056C303.336 94.856 308.304 89.504 314.64 86C321.024 82.448 328.368 80.672 336.672 80.672C345.024 80.672 352.392 82.496 358.776 86.144C365.16 89.744 370.152 95.144 373.752 102.344C377.352 109.544 379.152 118.496 379.152 129.2C379.152 140.096 377.352 149.168 373.752 156.416C370.152 163.664 365.16 169.088 358.776 172.688C352.392 176.24 345.024 178.016 336.672 178.016ZM336.672 162.608C344.304 162.608 350.352 159.728 354.816 153.968C359.328 148.208 361.584 139.904 361.584 129.056C361.584 118.592 359.328 110.456 354.816 104.648C350.352 98.84 344.304 95.936 336.672 95.936C329.184 95.936 323.184 98.864 318.672 104.72C314.16 110.528 311.904 118.688 311.904 129.2C311.904 140 314.16 148.28 318.672 154.04C323.184 159.752 329.184 162.608 336.672 162.608ZM399.257 176V105.872H416.249V176H399.257ZM412.073 145.328C412.073 136.16 413.105 128.576 415.169 122.576C417.233 116.576 419.993 112.136 423.449 109.256C426.953 106.328 430.841 104.864 435.113 104.864C436.265 104.864 437.345 104.936 438.353 105.08C439.409 105.224 440.441 105.44 441.449 105.728L441.161 122.72C439.913 122.432 438.569 122.192 437.129 122C435.689 121.808 434.393 121.712 433.241 121.712C429.497 121.712 426.353 122.624 423.809 124.448C421.313 126.224 419.417 128.864 418.121 132.368C416.873 135.872 416.249 140.192 416.249 145.328H412.073ZM491.5 178.016C487.132 178.016 483.124 176.792 479.476 174.344C475.876 171.896 472.996 168.248 470.836 163.4C468.676 158.504 467.596 152.384 467.596 145.04H472.78C472.78 148.544 473.572 151.616 475.156 154.256C476.74 156.896 478.78 158.96 481.276 160.448C483.772 161.888 486.364 162.608 489.052 162.608C492.364 162.608 495.316 161.696 497.908 159.872C500.5 158.048 502.54 155.504 504.028 152.24C505.564 148.976 506.332 145.136 506.332 140.72C506.332 136.448 505.588 132.728 504.1 129.56C502.612 126.344 500.548 123.848 497.908 122.072C495.316 120.296 492.316 119.408 488.908 119.408C486.076 119.408 483.436 120.104 480.988 121.496C478.54 122.84 476.548 124.808 475.012 127.4C473.524 129.944 472.78 133.04 472.78 136.688H467.596C467.596 129.632 468.604 123.68 470.62 118.832C472.684 113.984 475.588 110.336 479.332 107.888C483.124 105.392 487.612 104.144 492.796 104.144C498.46 104.144 503.596 105.656 508.204 108.68C512.86 111.656 516.556 115.904 519.292 121.424C522.076 126.896 523.468 133.328 523.468 140.72C523.468 148.208 522.028 154.76 519.148 160.376C516.316 165.944 512.476 170.288 507.628 173.408C502.78 176.48 497.404 178.016 491.5 178.016ZM455.788 176V77.216H472.78V158.72L466.876 176H455.788ZM554.177 93.344C550.865 93.344 548.273 92.48 546.401 90.752C544.577 88.976 543.665 86.528 543.665 83.408C543.665 80.384 544.577 77.984 546.401 76.208C548.273 74.384 550.865 73.472 554.177 73.472C557.441 73.472 560.009 74.384 561.881 76.208C563.753 77.984 564.689 80.384 564.689 83.408C564.689 86.528 563.753 88.976 561.881 90.752C560.009 92.48 557.441 93.344 554.177 93.344ZM545.681 176V105.872H562.673V176H545.681ZM615.107 178.016C610.979 178.016 607.187 177.248 603.731 175.712C600.323 174.176 597.587 171.824 595.523 168.656C593.507 165.488 592.499 161.456 592.499 156.56V87.584H609.491V155.984C609.491 161.744 612.227 164.624 617.699 164.624C619.379 164.624 621.059 164.432 622.739 164.048C624.419 163.664 626.339 163.088 628.499 162.32L630.947 174.272C628.259 175.328 625.643 176.216 623.099 176.936C620.555 177.656 617.891 178.016 615.107 178.016ZM582.707 117.392V106.16H628.499V117.392H582.707ZM684.726 176V82.544H743.622V97.232H701.718V121.856H740.022V136.4H701.718V176H684.726ZM763.476 176V77.216H780.468V176H763.476ZM851.847 176L849.687 159.008V130.928C849.687 126.032 848.679 122.408 846.663 120.056C844.695 117.704 841.335 116.528 836.583 116.528C833.847 116.528 831.471 116.936 829.455 117.752C827.439 118.568 825.879 119.744 824.775 121.28C823.719 122.768 823.191 124.592 823.191 126.752H804.615C804.615 121.472 805.887 117.176 808.431 113.864C810.975 110.504 814.623 108.056 819.375 106.52C824.175 104.936 829.911 104.144 836.583 104.144C842.631 104.144 847.911 105.128 852.423 107.096C856.935 109.016 860.439 111.992 862.935 116.024C865.431 120.056 866.679 125.216 866.679 131.504V176H851.847ZM828.951 178.016C822.951 178.016 817.935 176.984 813.903 174.92C809.919 172.808 806.919 170.048 804.903 166.64C802.887 163.232 801.879 159.536 801.879 155.552C801.879 151.136 803.031 147.44 805.335 144.464C807.687 141.44 810.999 139.184 815.271 137.696C819.543 136.16 824.583 135.392 830.391 135.392C834.183 135.392 837.759 135.68 841.119 136.256C844.527 136.832 847.911 137.6 851.271 138.56V148.496C848.631 147.632 845.751 146.96 842.631 146.48C839.511 146 836.583 145.76 833.847 145.76C829.815 145.76 826.503 146.504 823.911 147.992C821.319 149.48 820.023 152 820.023 155.552C820.023 158.144 821.079 160.376 823.191 162.248C825.303 164.12 828.663 165.056 833.271 165.056C836.775 165.056 839.751 164.288 842.199 162.752C844.647 161.216 846.495 159.296 847.743 156.992C849.039 154.688 849.687 152.384 849.687 150.08H853.719C853.719 155.12 852.783 159.776 850.911 164.048C849.039 168.272 846.255 171.656 842.559 174.2C838.911 176.744 834.375 178.016 828.951 178.016ZM918.513 212.144C910.497 212.144 903.633 211.04 897.921 208.832C892.257 206.624 887.913 203.72 884.889 200.12C881.865 196.568 880.353 192.704 880.353 188.528C880.353 183.584 882.153 179.744 885.753 177.008C889.353 174.32 893.889 172.976 899.361 172.976L911.745 177.584C907.041 177.584 903.417 178.472 900.873 180.248C898.329 182.024 897.057 184.496 897.057 187.664C897.057 190.976 898.953 193.616 902.745 195.584C906.585 197.6 911.841 198.608 918.513 198.608C923.361 198.608 927.561 197.888 931.113 196.448C934.665 195.008 937.401 193.136 939.321 190.832C941.289 188.528 942.273 186.08 942.273 183.488C942.273 181.76 941.697 180.344 940.545 179.24C939.393 178.136 937.617 177.584 935.217 177.584H911.745C907.041 177.584 902.745 176.84 898.857 175.352C895.017 173.816 891.945 171.776 889.641 169.232C887.385 166.64 886.257 163.76 886.257 160.592C886.257 157.664 887.073 155.144 888.705 153.032C890.337 150.872 892.545 149.216 895.329 148.064C898.161 146.912 901.329 146.336 904.833 146.336L909.153 151.952C907.761 151.952 906.417 152.24 905.121 152.816C903.873 153.344 902.841 154.136 902.025 155.192C901.209 156.248 900.801 157.568 900.801 159.152C900.801 161.072 901.617 162.632 903.249 163.832C904.881 165.032 907.713 165.632 911.745 165.632H935.217C942.657 165.632 948.489 167 952.713 169.736C956.985 172.472 959.121 176.672 959.121 182.336C959.121 187.376 957.465 192.152 954.153 196.664C950.841 201.224 946.137 204.944 940.041 207.824C933.993 210.704 926.817 212.144 918.513 212.144ZM919.377 154.4C913.857 154.4 908.793 153.368 904.185 151.304C899.625 149.192 895.977 146.264 893.241 142.52C890.505 138.776 889.137 134.384 889.137 129.344C889.137 124.208 890.505 119.744 893.241 115.952C895.977 112.16 899.625 109.256 904.185 107.24C908.793 105.176 913.857 104.144 919.377 104.144C924.753 104.144 929.721 105.176 934.281 107.24C938.841 109.256 942.513 112.16 945.297 115.952C948.081 119.744 949.473 124.208 949.473 129.344C949.473 134.384 948.081 138.776 945.297 142.52C942.513 146.264 938.841 149.192 934.281 151.304C929.721 153.368 924.753 154.4 919.377 154.4ZM919.521 142.592C923.937 142.592 927.249 141.32 929.457 138.776C931.665 136.232 932.769 133.088 932.769 129.344C932.769 125.312 931.641 122.072 929.385 119.624C927.177 117.176 923.841 115.952 919.377 115.952C915.057 115.952 911.745 117.176 909.441 119.624C907.137 122.072 905.985 125.312 905.985 129.344C905.985 133.088 907.137 136.232 909.441 138.776C911.793 141.32 915.153 142.592 919.521 142.592ZM944.145 115.376L936.369 110.912C936.369 106.736 937.329 103.088 939.249 99.968C941.217 96.8 943.809 94.352 947.025 92.624C950.289 90.896 953.889 90.032 957.825 90.032L956.961 106.304C952.785 106.304 949.593 107.048 947.385 108.536C945.225 109.976 944.145 112.256 944.145 115.376Z" fill="black"/>
</svg>
